<svg width="24" height="24" viewBox="0 0 24 24" fill="none" xmlns="http://www.w3.org/2000/svg">
<path d="M7.00005 10.5901L11.2901 14.8301C11.383 14.9238 11.4936 14.9982 11.6155 15.049C11.7373 15.0998 11.868 15.1259 12.0001 15.1259C12.1321 15.1259 12.2628 15.0998 12.3846 15.049C12.5065 14.9982 12.6171 14.9238 12.7101 14.8301L16.9501 10.5901C17.0438 10.4972 17.1182 10.3866 17.1689 10.2647C17.2197 10.1428 17.2459 10.0121 17.2459 9.88012C17.2459 9.74811 17.2197 9.6174 17.1689 9.49554C17.1182 9.37368 17.0438 9.26308 16.9501 9.17012C16.7627 8.98387 16.5092 8.87932 16.2451 8.87932C15.9809 8.87932 15.7274 8.98387 15.5401 9.17012L12.0001 12.7101L8.46005 9.17012C8.27379 8.98537 8.02239 8.88122 7.76005 8.88012C7.62845 8.87936 7.49798 8.90458 7.37614 8.95434C7.25431 9.00411 7.14349 9.07744 7.05005 9.17012C6.95298 9.25973 6.87462 9.3677 6.81952 9.48778C6.76441 9.60785 6.73364 9.73766 6.72899 9.86969C6.72434 10.0017 6.7459 10.1334 6.79243 10.257C6.83895 10.3807 6.90952 10.4939 7.00005 10.5901Z" fill="#040609"/>
</svg>
