<svg width="40" height="40" viewBox="0 0 40 40" fill="none" xmlns="http://www.w3.org/2000/svg">
<rect width="40" height="40" rx="8" fill="#E9EAED"/>
<g clip-path="url(#clip0_436:4762)">
<path fill-rule="evenodd" clip-rule="evenodd" d="M10.5977 13H32V24.1035L30.5684 24.3105L30.416 16.209V16.1035C30.3963 15.7311 30.2396 15.379 29.9761 15.1151C29.7125 14.8512 29.3607 14.694 28.9883 14.6738H10.6289L10.5977 13ZM29.3086 16.0332V27.1367H8V16.0332H29.3086ZM16.75 20.4922C16.9731 20.0459 17.3236 19.6758 17.7571 19.4286C18.1905 19.1814 18.6875 19.0683 19.1853 19.1036C19.683 19.1388 20.1591 19.3208 20.5534 19.6266C20.9477 19.9324 21.2425 20.3482 21.4006 20.8215C21.5586 21.2948 21.5728 21.8043 21.4413 22.2856C21.3098 22.767 21.0386 23.1985 20.6619 23.5258C20.2852 23.853 19.8199 24.0612 19.3249 24.124C18.8299 24.1869 18.3274 24.1016 17.8809 23.8789C17.5841 23.7309 17.3194 23.5259 17.102 23.2755C16.8845 23.0252 16.7185 22.7345 16.6135 22.4199C16.5085 22.1054 16.4665 21.7732 16.4899 21.4425C16.5133 21.1117 16.6017 20.7888 16.75 20.4922ZM11.5957 17.6719L25.6816 17.7754C25.6888 18.21 25.868 18.6241 26.1799 18.9268C26.4918 19.2296 26.9111 19.3964 27.3457 19.3906L27.4121 23.7812C26.9773 23.7884 26.5632 23.968 26.2607 24.2804C25.9581 24.5928 25.792 25.0125 25.7988 25.4473L11.7109 25.3438C11.7037 24.9088 11.5243 24.4944 11.212 24.1916C10.8996 23.8888 10.4799 23.7222 10.0449 23.7285L9.97852 19.3379C10.4142 19.3312 10.8294 19.1521 11.1333 18.8398C11.4371 18.5275 11.6048 18.1076 11.5996 17.6719H11.5957Z" fill="#7E8082"/>
</g>
<defs>
<clipPath id="clip0_436:4762">
<rect width="24" height="14.1367" fill="white" transform="translate(8 13)"/>
</clipPath>
</defs>
</svg>
