<svg width="44" height="44" viewBox="0 0 44 44" fill="none" xmlns="http://www.w3.org/2000/svg">
<path d="M14.4805 33.5986C15.9307 33.5986 18.8955 32.1377 21.0762 30.5908C28.5635 30.7949 34.1816 26.4873 34.1816 20.8584C34.1816 15.4551 28.7676 11.0938 22 11.0938C15.2324 11.0938 9.81836 15.4551 9.81836 20.8584C9.81836 24.3818 12.0742 27.5078 15.4688 29.0762C14.9854 30.0215 14.083 31.2891 13.5996 31.9229C13.0303 32.6641 13.374 33.5986 14.4805 33.5986ZM15.6084 31.8154C15.5225 31.8477 15.4902 31.7832 15.5439 31.7188C16.1455 30.9775 17.0049 29.8604 17.3701 29.1621C17.6709 28.6143 17.5957 28.1201 16.9082 27.7979C13.5352 26.2295 11.6016 23.7266 11.6016 20.8584C11.6016 16.4648 16.21 12.877 22 12.877C27.8008 12.877 32.4092 16.4648 32.4092 20.8584C32.4092 25.2627 27.8008 28.8506 22 28.8506C21.7852 28.8506 21.4521 28.8398 21.0225 28.8291C20.5713 28.8184 20.2275 28.9688 19.8193 29.291C18.498 30.2471 16.5859 31.418 15.6084 31.8154Z" fill="#7F7F7F"/>
</svg>
