<svg width="58" height="72" viewBox="0 0 58 72" fill="none" xmlns="http://www.w3.org/2000/svg">
<path fill-rule="evenodd" clip-rule="evenodd" d="M16.0345 45.7974L14.4745 49.5969C14.473 49.6054 14.4698 49.6134 14.4651 49.6206C14.4604 49.6277 14.4542 49.6339 14.4471 49.6386C14.4399 49.6433 14.4319 49.6466 14.4234 49.6482C14.4149 49.6498 14.4062 49.6496 14.3978 49.6478H14.027C13.9886 49.6478 13.9631 49.6224 13.9375 49.5842L12.467 45.7466L11.9812 49.5969C11.9812 49.6351 11.9556 49.6478 11.9172 49.6478H11.4953C11.4569 49.6478 11.4313 49.6351 11.4313 49.5969C11.4307 49.5901 11.4316 49.5831 11.4338 49.5766C11.436 49.57 11.4395 49.564 11.4441 49.5588L12.2625 45.1239L12.1218 44.7554V44.7173C12.1218 44.6665 12.1602 44.641 12.2113 44.641L12.3648 44.6156L12.5438 44.5902H12.8123L12.8762 44.6156C12.8998 44.6307 12.9178 44.653 12.9274 44.6792L14.4362 48.6185L15.9706 45.1112L15.9322 44.7681C15.9276 44.763 15.9241 44.7569 15.9219 44.7504C15.9197 44.7438 15.9188 44.7369 15.9194 44.73C15.9221 44.7073 15.9324 44.6862 15.9487 44.6701C15.9649 44.654 15.9861 44.6437 16.0089 44.641H16.1624L16.3286 44.6156H16.5843C16.661 44.6156 16.6994 44.641 16.7122 44.7046L17.2748 49.4953C17.2748 49.508 17.2876 49.508 17.2876 49.5207V49.5461C17.2876 49.5969 17.262 49.6224 17.1981 49.6351L17.0446 49.6605H16.5204C16.5125 49.6546 16.506 49.6469 16.5016 49.6381C16.4971 49.6292 16.4948 49.6195 16.4948 49.6097L16.0345 45.7974Z" fill="#1D2B50"/>
<path fill-rule="evenodd" clip-rule="evenodd" d="M19.1286 48.9743V49.1268C19.1414 49.165 19.1414 49.1904 19.167 49.2158C19.1775 49.229 19.1913 49.2394 19.2069 49.2461C19.2225 49.2528 19.2396 49.2554 19.2565 49.2539H20.5224C20.6471 49.243 20.7686 49.2085 20.8804 49.1522C20.9839 49.0879 21.0714 49.001 21.1361 48.8981C21.2128 48.771 21.2896 48.6058 21.3919 48.3898L21.5964 48.4406C21.5961 48.4875 21.5918 48.5342 21.5837 48.5804C21.5709 48.6694 21.5453 48.7583 21.5325 48.86C21.5197 48.9616 21.4814 49.0887 21.4686 49.1904C21.4558 49.292 21.4174 49.4064 21.3919 49.4826C21.3779 49.525 21.3503 49.5616 21.3133 49.5869C21.2764 49.6121 21.2321 49.6246 21.1873 49.6224H18.4509L18.3614 49.597C18.3512 49.5729 18.3468 49.5468 18.3487 49.5208V45.4925C18.3538 45.4413 18.3473 45.3895 18.3296 45.3411C18.3119 45.2927 18.2834 45.2489 18.2464 45.2129C18.1729 45.1698 18.0888 45.1478 18.0034 45.1494H17.8244L17.7988 44.9207L18.0546 44.8698L18.4126 44.8317L18.7578 44.7809H21.2001C21.2512 44.7809 21.2768 44.8063 21.2768 44.8444C21.2756 44.8956 21.2799 44.9467 21.2896 44.9969C21.2878 45.0691 21.2921 45.1414 21.3024 45.2129V45.4417C21.3126 45.5132 21.3169 45.5855 21.3151 45.6577C21.3249 45.7122 21.3292 45.7675 21.3279 45.8229V45.9118L21.1233 45.9373C21.088 45.78 21.0366 45.6267 20.9699 45.4798C20.9353 45.3836 20.8731 45.2997 20.7909 45.2384C20.7012 45.1863 20.6005 45.1558 20.4968 45.1494H19.2054C19.1798 45.1494 19.1542 45.1621 19.1542 45.1748C19.1463 45.1807 19.1398 45.1884 19.1354 45.1972C19.1309 45.2061 19.1286 45.2158 19.1286 45.2256V46.992L19.7552 46.9666L20.2539 46.9411H20.7653C20.842 46.9411 20.8804 46.9793 20.8804 47.0682C20.882 47.1236 20.8777 47.179 20.8676 47.2334C20.8676 47.2843 20.8548 47.3478 20.8548 47.4113L19.1286 47.3478V49.0252V48.9743Z" fill="#1D2B50"/>
<path fill-rule="evenodd" clip-rule="evenodd" d="M22.5427 49.6224C22.4788 49.6224 22.4404 49.5843 22.4404 49.508V45.3908C22.4448 45.3407 22.4392 45.2901 22.4238 45.2422C22.4085 45.1942 22.3837 45.1497 22.3509 45.1113C22.2799 45.0627 22.194 45.0402 22.108 45.0477H21.9162L21.8906 44.819C22.2103 44.7682 22.53 44.7174 22.8496 44.6919C23.168 44.656 23.4882 44.639 23.8086 44.6411C24.0738 44.6386 24.3387 44.6556 24.6014 44.6919C24.8458 44.7185 25.0862 44.774 25.3174 44.8571C25.5381 44.9216 25.7489 45.0157 25.944 45.1367C26.1269 45.2655 26.2905 45.4196 26.4299 45.5942C26.5698 45.7812 26.6739 45.9923 26.7367 46.2168C26.9192 46.8627 26.8833 47.5502 26.6345 48.1738C26.4897 48.4954 26.2758 48.7817 26.0079 49.0124C25.7238 49.2411 25.3983 49.4137 25.0489 49.5207C24.6597 49.6403 24.2544 49.7003 23.847 49.6986H23.5145L23.2332 49.6732L22.9263 49.6351L22.5427 49.6224ZM23.2204 49.2793C23.3246 49.3085 23.4319 49.3256 23.5401 49.3301L23.8853 49.3555C24.1907 49.3611 24.4943 49.3093 24.7804 49.2031C25.0336 49.1079 25.2612 48.9556 25.4453 48.7583C25.6301 48.5617 25.7698 48.3276 25.8545 48.0721C25.9497 47.7808 25.9972 47.4762 25.9951 47.1699C25.9983 46.8718 25.9508 46.5754 25.8545 46.2931C25.7603 46.0391 25.6169 45.806 25.4325 45.6069C25.2414 45.4119 25.0103 45.2602 24.7548 45.1621C24.4599 45.0559 24.1479 45.0042 23.8342 45.0096H23.6168L23.3227 45.035C23.288 45.0489 23.259 45.074 23.2405 45.1063C23.2219 45.1386 23.2148 45.1762 23.2204 45.2129V49.2793V49.2793Z" fill="#1D2B50"/>
<path fill-rule="evenodd" clip-rule="evenodd" d="M27.2866 44.8317L27.7086 44.7681L28.0794 44.7173L28.3351 44.6919H28.4758C28.5653 44.6919 28.6036 44.73 28.6036 44.819V49.508C28.6055 49.5224 28.6042 49.537 28.5999 49.5508C28.5955 49.5646 28.5883 49.5774 28.5786 49.5882C28.5689 49.5991 28.557 49.6077 28.5437 49.6136C28.5304 49.6195 28.5159 49.6225 28.5014 49.6224L28.3479 49.6478H27.926C27.912 49.6499 27.8978 49.6488 27.8844 49.6445C27.871 49.6401 27.8588 49.6327 27.8488 49.6228C27.8388 49.6129 27.8314 49.6008 27.827 49.5874C27.8226 49.5741 27.8215 49.56 27.8237 49.5461V45.4289C27.8231 45.3646 27.8145 45.3005 27.7981 45.2383C27.7817 45.1977 27.7602 45.1592 27.7342 45.1239C27.7044 45.0995 27.6694 45.0822 27.6319 45.0731L27.4912 45.0477H27.3122L27.2866 44.8317Z" fill="#1D2B50"/>
<path fill-rule="evenodd" clip-rule="evenodd" d="M32.2476 44.6537C32.5791 44.6474 32.9088 44.7035 33.2194 44.8189C33.5026 44.9245 33.7598 45.0892 33.9738 45.3017C34.1825 45.5257 34.3435 45.7894 34.4469 46.0769C34.5652 46.4114 34.6215 46.7644 34.6131 47.1189C34.6204 47.5003 34.5554 47.8797 34.4213 48.2371C34.3131 48.549 34.1337 48.8318 33.8971 49.0631C33.6549 49.2833 33.3728 49.4557 33.066 49.5714C32.7158 49.6877 32.3482 49.7436 31.9791 49.7366C31.6476 49.7428 31.3179 49.6868 31.0073 49.5714C30.7269 49.4546 30.471 49.2865 30.2529 49.0758C30.0441 48.847 29.8833 48.5792 29.7798 48.288C29.6616 47.949 29.6053 47.5919 29.6136 47.2333C29.606 46.856 29.6711 46.4807 29.8054 46.1277C29.9105 45.818 30.0905 45.5388 30.3296 45.3144C30.5693 45.094 30.8523 44.9253 31.1608 44.8189C31.5109 44.7026 31.8785 44.6467 32.2476 44.6537V44.6537ZM32.0302 45.0095C31.7961 45.0014 31.5637 45.0533 31.3555 45.1601C31.1473 45.2669 30.9702 45.4251 30.8411 45.6194C30.7189 45.8161 30.6283 46.0304 30.5726 46.2548C30.5099 46.5041 30.4798 46.7603 30.4831 47.0172C30.4805 47.3077 30.5106 47.5975 30.5726 47.8813C30.6324 48.1504 30.736 48.4079 30.8795 48.6438C31.018 48.8578 31.2011 49.0398 31.4165 49.1775C31.6506 49.3202 31.922 49.3909 32.1965 49.3808C32.4457 49.3898 32.6928 49.3328 32.9125 49.2156C33.1057 49.1042 33.2683 48.9471 33.3856 48.7582C33.5152 48.5547 33.6102 48.3315 33.6669 48.0974C33.7234 47.847 33.7534 47.5915 33.7564 47.3349C33.7547 47.0482 33.7203 46.7626 33.6541 46.4835C33.6009 46.2185 33.5014 45.9647 33.36 45.7338C33.2215 45.5198 33.0384 45.3378 32.823 45.2001C32.5807 45.0672 32.3069 45.0014 32.0302 45.0095V45.0095Z" fill="#1D2B50"/>
<path fill-rule="evenodd" clip-rule="evenodd" d="M36.0199 44.6156L36.0838 44.641L36.1478 44.7173L39.0504 48.5422L38.9481 44.7935C38.9481 44.7554 38.9736 44.7427 39.012 44.7427L39.2166 44.7173H39.4595C39.4765 44.7173 39.4927 44.724 39.5047 44.7359C39.5167 44.7478 39.5235 44.764 39.5235 44.7808L39.4212 48.8472V49.6096C39.4212 49.6477 39.3956 49.6604 39.3572 49.6604H38.9353L38.8969 49.6096L35.9688 45.7466L36.0711 49.5969C36.0711 49.6223 36.0583 49.6477 36.0071 49.6477H35.5596C35.5426 49.6477 35.5264 49.641 35.5144 49.6291C35.5024 49.6172 35.4957 49.601 35.4957 49.5842L35.598 45.2383L35.2527 44.7681C35.2481 44.7629 35.2446 44.7569 35.2424 44.7504C35.2402 44.7438 35.2393 44.7369 35.2399 44.73C35.2399 44.6961 35.2655 44.6707 35.3166 44.6537L35.4829 44.6283L35.7002 44.6029H36.0199V44.6156Z" fill="#1D2B50"/>
<path fill-rule="evenodd" clip-rule="evenodd" d="M26.2763 26.6474C26.2763 26.8063 26.2287 26.9616 26.1396 27.0935C26.0505 27.2254 25.924 27.328 25.776 27.3882C25.6281 27.4484 25.4655 27.4635 25.3089 27.4315C25.1523 27.3996 25.0088 27.3221 24.8966 27.2089C24.7845 27.0956 24.7088 26.9518 24.6792 26.7957C24.6496 26.6395 24.6673 26.4782 24.7303 26.3321C24.7932 26.1861 24.8984 26.062 25.0326 25.9755C25.1667 25.8891 25.3237 25.8443 25.4836 25.8469C25.5888 25.8468 25.6929 25.8676 25.7899 25.908C25.887 25.9484 25.9749 26.0076 26.0487 26.0821C26.1225 26.1566 26.1806 26.245 26.2197 26.342C26.2588 26.4391 26.278 26.5429 26.2763 26.6474V26.6474ZM33.5775 24.5888C33.5775 24.2076 33.4624 24.0424 33.1044 23.9407C27.4655 22.238 23.5784 22.454 18.0673 23.9789C17.6582 24.0932 17.3641 24.2711 17.3769 24.5888V31.0188C17.3641 37.0039 19.525 37.957 25.1639 41.82C25.2642 41.8734 25.3762 41.9013 25.49 41.9013C25.6037 41.9013 25.7157 41.8734 25.816 41.82C29.7926 39.1388 33.6542 36.2923 33.5647 31.0188C33.5263 28.8712 33.5519 26.7364 33.5647 24.5888H33.5775ZM25.4836 25.2623C24.2541 25.2548 23.0511 25.6168 22.0322 26.3007C21.0134 26.9846 20.2263 27.9585 19.7742 29.0948C19.3221 30.2311 19.2261 31.4766 19.4988 32.668C19.7715 33.8595 20.4002 34.9412 21.3024 35.7713C21.2274 35.007 21.1933 34.2392 21.2001 33.4713C21.2128 32.8994 20.7653 32.1624 20.6502 31.8066C20.4712 31.2221 20.6758 31.1458 20.8165 30.8917C20.9571 30.6375 22.7856 27.9944 22.9646 27.6894C23.1436 27.3844 24.0259 27.3972 23.7062 27.9944C23.2459 28.8458 22.2102 30.485 21.9161 31.1712C21.7115 31.6414 22.1335 32.4674 22.5043 31.7304C22.8751 30.9933 23.5016 30.269 23.7829 29.8497C24.0643 29.4303 24.5118 29.5447 24.3967 29.9767C24.2177 30.7011 23.5784 31.527 23.5912 33.2171L23.6934 37.131C24.0939 37.2504 24.5049 37.3312 24.921 37.3724V32.8486C24.921 32.7441 24.9627 32.6439 25.0371 32.5701C25.1114 32.4962 25.2122 32.4547 25.3173 32.4547H25.6114C25.7166 32.4547 25.8174 32.4962 25.8917 32.5701C25.9661 32.6439 26.0078 32.7441 26.0078 32.8486V37.3724C26.4291 37.3386 26.8451 37.2576 27.2481 37.131L27.3632 33.2171C27.3632 31.527 26.7239 30.7011 26.5449 29.9767C26.4426 29.5447 26.8901 29.4557 27.1714 29.8624C27.4527 30.269 28.0409 30.9044 28.4501 31.7304C28.8592 32.5563 29.2428 31.6414 29.0382 31.1712C28.7441 30.485 27.7084 28.8458 27.2481 28.0071C26.9285 27.3971 27.7212 27.2701 27.9897 27.6894C28.2583 28.1088 29.8822 30.4596 30.1379 30.9044C30.2785 31.1458 30.4703 31.2221 30.3041 31.8066C30.189 32.1624 29.7415 32.8994 29.7543 33.4713C29.7671 34.0431 29.7031 35.1741 29.652 35.7713C30.5533 34.9419 31.1817 33.8614 31.4547 32.6711C31.7278 31.4809 31.6329 30.2365 31.1824 29.1008C30.7319 27.9651 29.9469 26.991 28.93 26.3061C27.9132 25.6212 26.7119 25.2574 25.4836 25.2623V25.2623Z" fill="#C01313"/>
</svg>
