<svg width="40" height="40" viewBox="0 0 40 40" fill="none" xmlns="http://www.w3.org/2000/svg">
<path d="M19.4141 25H11.9609V23.9609L15.8984 19.5859C16.4818 18.9245 16.8828 18.388 17.1016 17.9766C17.3255 17.5599 17.4375 17.1302 17.4375 16.6875C17.4375 16.0938 17.2578 15.6068 16.8984 15.2266C16.5391 14.8464 16.0599 14.6562 15.4609 14.6562C14.7422 14.6562 14.1823 14.862 13.7812 15.2734C13.3854 15.6797 13.1875 16.2474 13.1875 16.9766H11.7422C11.7422 15.9297 12.0781 15.0833 12.75 14.4375C13.4271 13.7917 14.3307 13.4688 15.4609 13.4688C16.5182 13.4688 17.3542 13.7474 17.9688 14.3047C18.5833 14.8568 18.8906 15.5938 18.8906 16.5156C18.8906 17.6354 18.1771 18.9688 16.75 20.5156L13.7031 23.8203H19.4141V25ZM26.6172 13.6172V14.8438H26.3516C25.2266 14.8646 24.3307 15.1979 23.6641 15.8438C22.9974 16.4896 22.612 17.3984 22.5078 18.5703C23.1068 17.8828 23.9245 17.5391 24.9609 17.5391C25.9505 17.5391 26.7396 17.888 27.3281 18.5859C27.9219 19.2839 28.2188 20.1849 28.2188 21.2891C28.2188 22.4609 27.8984 23.3984 27.2578 24.1016C26.6224 24.8047 25.7682 25.1562 24.6953 25.1562C23.6068 25.1562 22.724 24.7396 22.0469 23.9062C21.3698 23.0677 21.0312 21.9896 21.0312 20.6719V20.1172C21.0312 18.0234 21.4766 16.4245 22.3672 15.3203C23.263 14.2109 24.5938 13.6432 26.3594 13.6172H26.6172ZM24.7188 18.7422C24.224 18.7422 23.7682 18.8906 23.3516 19.1875C22.9349 19.4844 22.6458 19.8568 22.4844 20.3047V20.8359C22.4844 21.7734 22.6953 22.5286 23.1172 23.1016C23.5391 23.6745 24.0651 23.9609 24.6953 23.9609C25.3464 23.9609 25.8568 23.7214 26.2266 23.2422C26.6016 22.763 26.7891 22.1354 26.7891 21.3594C26.7891 20.5781 26.599 19.9479 26.2188 19.4688C25.8438 18.9844 25.3438 18.7422 24.7188 18.7422Z" fill="#201918"/>
<rect x="0.5" y="0.5" width="39" height="39" rx="19.5" stroke="#27384E"/>
</svg>
