<svg width="24" height="24" viewBox="0 0 24 24" fill="none" xmlns="http://www.w3.org/2000/svg">
<path d="M19.7309 13.5323L19.7308 13.5323L19.7253 13.5379L13.7269 19.5862C13.7267 19.5865 13.7264 19.5867 13.7261 19.587C13.2574 20.0547 12.6224 20.3173 11.9603 20.3173C11.2982 20.3173 10.6631 20.0547 10.1944 19.587C10.1942 19.5867 10.1939 19.5865 10.1936 19.5862L4.19529 13.5379L4.1953 13.5379L4.19259 13.5352C3.15713 12.507 2.54973 11.1246 2.49269 9.66644C2.43566 8.2083 2.93323 6.78271 3.8852 5.67674C4.83717 4.57077 6.17284 3.86658 7.62323 3.70597C9.07362 3.54536 10.531 3.94027 11.7019 4.81116L11.9991 5.03227L12.2972 4.81225C13.4083 3.99215 14.7759 3.59616 16.1532 3.69575C17.5296 3.79527 18.8252 4.3831 19.8065 5.35328C20.3397 5.89387 20.761 6.53439 21.0461 7.23813C21.3317 7.94275 21.4752 8.69686 21.4683 9.4571C21.4615 10.2173 21.3045 10.9687 21.0063 11.6681C20.7081 12.3675 20.2747 13.001 19.7309 13.5323Z" fill="#B82828" stroke="#B82828"/>
</svg>
