<svg width="24" height="24" viewBox="0 0 24 24" fill="none" xmlns="http://www.w3.org/2000/svg">
<path d="M20.16 4.99997C19.0937 3.94467 17.6854 3.30524 16.1891 3.19705C14.6928 3.08886 13.207 3.51904 12 4.40997C10.7277 3.46361 9.14402 3.03448 7.56795 3.20901C5.99188 3.38353 4.54047 4.14875 3.506 5.35055C2.47154 6.55236 1.93085 8.10149 1.99283 9.68598C2.05481 11.2705 2.71485 12.7726 3.84003 13.89L9.84003 19.94C10.4025 20.5018 11.165 20.8173 11.96 20.8173C12.755 20.8173 13.5175 20.5018 14.08 19.94L20.08 13.89C20.671 13.3126 21.142 12.6242 21.466 11.8642C21.79 11.1042 21.9606 10.2877 21.968 9.4616C21.9755 8.63548 21.8196 7.81603 21.5093 7.05035C21.199 6.28467 20.7405 5.58786 20.16 4.99997ZM18.75 12.46L12.75 18.46C12.6571 18.5537 12.5465 18.6281 12.4246 18.6789C12.3027 18.7296 12.172 18.7558 12.04 18.7558C11.908 18.7558 11.7773 18.7296 11.6555 18.6789C11.5336 18.6281 11.423 18.5537 11.33 18.46L5.33003 12.46C4.54579 11.6583 4.10664 10.5814 4.10664 9.45997C4.10664 8.3385 4.54579 7.26162 5.33003 6.45997C6.12919 5.67096 7.207 5.22854 8.33003 5.22854C9.45306 5.22854 10.5309 5.67096 11.33 6.45997C11.423 6.5537 11.5336 6.62809 11.6555 6.67886C11.7773 6.72963 11.908 6.75577 12.04 6.75577C12.172 6.75577 12.3027 6.72963 12.4246 6.67886C12.5465 6.62809 12.6571 6.5537 12.75 6.45997C13.5708 5.80686 14.6032 5.47869 15.6505 5.53806C16.6977 5.59743 17.6864 6.04018 18.4281 6.78187C19.1698 7.52356 19.6126 8.5123 19.6719 9.55953C19.7313 10.6068 19.4031 11.6392 18.75 12.46Z" fill="black"/>
</svg>
