<svg width="304" height="49" viewBox="0 0 304 49" fill="none" xmlns="http://www.w3.org/2000/svg">
<path d="M118.908 13.2969C118.794 14.5104 118.346 15.4583 117.564 16.1406C116.783 16.8177 115.744 17.1562 114.447 17.1562C113.541 17.1562 112.741 16.9427 112.049 16.5156C111.361 16.0833 110.83 15.4714 110.455 14.6797C110.08 13.888 109.885 12.9688 109.869 11.9219V10.8594C109.869 9.78646 110.059 8.84115 110.439 8.02344C110.82 7.20573 111.364 6.57552 112.072 6.13281C112.786 5.6901 113.609 5.46875 114.541 5.46875C115.796 5.46875 116.807 5.8099 117.572 6.49219C118.338 7.17448 118.783 8.13802 118.908 9.38281H116.939C116.846 8.5651 116.606 7.97656 116.221 7.61719C115.84 7.2526 115.281 7.07031 114.541 7.07031C113.682 7.07031 113.02 7.38542 112.557 8.01562C112.098 8.64062 111.864 9.5599 111.853 10.7734V11.7812C111.853 13.0104 112.072 13.9479 112.51 14.5938C112.952 15.2396 113.598 15.5625 114.447 15.5625C115.223 15.5625 115.807 15.388 116.197 15.0391C116.588 14.6901 116.835 14.1094 116.939 13.2969H118.908ZM123.262 13.6562H122.301V17H120.403V8.54688H122.301V11.9219H123.137L125.473 8.54688H127.817L124.762 12.5938L128.074 17H125.606L123.262 13.6562ZM136.28 12.8594C136.28 14.1667 135.983 15.2109 135.389 15.9922C134.795 16.7682 133.998 17.1562 132.998 17.1562C132.071 17.1562 131.329 16.8516 130.772 16.2422V20.25H128.873V8.54688H130.623L130.702 9.40625C131.259 8.72917 132.017 8.39062 132.975 8.39062C134.006 8.39062 134.814 8.77604 135.397 9.54688C135.985 10.3125 136.28 11.3776 136.28 12.7422V12.8594ZM134.389 12.6953C134.389 11.8516 134.22 11.1823 133.881 10.6875C133.548 10.1927 133.069 9.94531 132.444 9.94531C131.668 9.94531 131.11 10.2656 130.772 10.9062V14.6562C131.116 15.3125 131.678 15.6406 132.459 15.6406C133.064 15.6406 133.535 15.3984 133.873 14.9141C134.217 14.4245 134.389 13.6849 134.389 12.6953ZM139.696 11.2344H141.555C142.248 11.2344 142.852 11.3542 143.368 11.5938C143.883 11.8333 144.274 12.1693 144.54 12.6016C144.811 13.0339 144.946 13.5365 144.946 14.1094C144.946 14.9792 144.639 15.6771 144.024 16.2031C143.409 16.7292 142.592 16.9948 141.571 17H137.798V8.54688H139.696V11.2344ZM148.251 17H146.352V8.54688H148.251V17ZM139.696 12.7578V15.4844H141.548C142.011 15.4844 142.376 15.3698 142.641 15.1406C142.912 14.9062 143.048 14.5755 143.048 14.1484C143.048 13.7214 142.915 13.3854 142.649 13.1406C142.389 12.8906 142.034 12.763 141.587 12.7578H139.696ZM156.94 10.0547H154.198V17H152.3V10.0547H149.589V8.54688H156.94V10.0547ZM160.013 11.2344H161.872C162.565 11.2344 163.169 11.3542 163.685 11.5938C164.2 11.8333 164.591 12.1693 164.857 12.6016C165.127 13.0339 165.263 13.5365 165.263 14.1094C165.263 14.9792 164.956 15.6771 164.341 16.2031C163.726 16.7292 162.909 16.9948 161.888 17H158.114V8.54688H160.013V11.2344ZM160.013 12.7578V15.4844H161.864C162.328 15.4844 162.693 15.3698 162.958 15.1406C163.229 14.9062 163.364 14.5755 163.364 14.1484C163.364 13.7214 163.232 13.3854 162.966 13.1406C162.706 12.8906 162.351 12.763 161.903 12.7578H160.013ZM170.431 17V8.54688H173.861C175.017 8.54688 175.897 8.75 176.502 9.15625C177.106 9.55729 177.408 10.1354 177.408 10.8906C177.408 11.2812 177.285 11.6328 177.041 11.9453C176.801 12.2526 176.444 12.4896 175.97 12.6562C176.522 12.7708 176.96 13.0026 177.283 13.3516C177.606 13.7005 177.767 14.112 177.767 14.5859C177.767 15.3724 177.476 15.9714 176.892 16.3828C176.314 16.7943 175.481 17 174.392 17H170.431ZM172.33 13.3984V15.5H174.408C175.382 15.5 175.869 15.151 175.869 14.4531C175.869 13.75 175.374 13.3984 174.384 13.3984H172.33ZM172.33 12.0391H173.892C174.97 12.0391 175.509 11.7214 175.509 11.0859C175.509 10.4193 174.999 10.0755 173.978 10.0547H172.33V12.0391ZM182.644 15.6406C183.118 15.6406 183.512 15.5026 183.824 15.2266C184.137 14.9505 184.303 14.6094 184.324 14.2031H186.113C186.092 14.7292 185.928 15.2214 185.621 15.6797C185.314 16.1328 184.897 16.4922 184.371 16.7578C183.845 17.0234 183.277 17.1562 182.668 17.1562C181.486 17.1562 180.548 16.7734 179.855 16.0078C179.163 15.2422 178.816 14.1849 178.816 12.8359V12.6406C178.816 11.3542 179.16 10.3255 179.848 9.55469C180.535 8.77865 181.473 8.39062 182.66 8.39062C183.665 8.39062 184.483 8.6849 185.113 9.27344C185.749 9.85677 186.082 10.625 186.113 11.5781H184.324C184.303 11.0938 184.137 10.6953 183.824 10.3828C183.517 10.0703 183.124 9.91406 182.644 9.91406C182.03 9.91406 181.556 10.138 181.223 10.5859C180.889 11.0286 180.72 11.7031 180.715 12.6094V12.9141C180.715 13.8307 180.879 14.5156 181.207 14.9688C181.54 15.4167 182.019 15.6406 182.644 15.6406ZM191.029 17.1562C189.826 17.1562 188.85 16.7786 188.1 16.0234C187.355 15.263 186.982 14.2526 186.982 12.9922V12.7578C186.982 11.9141 187.144 11.1615 187.467 10.5C187.795 9.83333 188.253 9.3151 188.842 8.94531C189.43 8.57552 190.087 8.39062 190.811 8.39062C191.962 8.39062 192.85 8.75781 193.475 9.49219C194.105 10.2266 194.42 11.2656 194.42 12.6094V13.375H188.897C188.954 14.0729 189.186 14.625 189.592 15.0312C190.003 15.4375 190.519 15.6406 191.139 15.6406C192.009 15.6406 192.717 15.2891 193.264 14.5859L194.287 15.5625C193.949 16.0677 193.496 16.4609 192.928 16.7422C192.365 17.0182 191.732 17.1562 191.029 17.1562ZM190.803 9.91406C190.282 9.91406 189.86 10.0964 189.537 10.4609C189.219 10.8255 189.016 11.3333 188.928 11.9844H192.545V11.8438C192.503 11.2083 192.334 10.7292 192.037 10.4062C191.74 10.0781 191.329 9.91406 190.803 9.91406Z" fill="#040609"/>
<path d="M3.64645 11.6464C3.84171 11.4512 4.15829 11.4512 4.35355 11.6464L7.53554 14.8284C7.73079 15.0237 7.73079 15.3403 7.53554 15.5355C7.34027 15.7308 7.0237 15.7308 6.82843 15.5355L4 12.7071L1.17157 15.5355C0.976303 15.7308 0.659729 15.7308 0.464462 15.5355C0.269211 15.3403 0.269211 15.0237 0.464462 14.8284L3.64645 11.6464ZM4.5 12C4.5 16.1174 8.06398 20.199 14.9306 24.0189C21.7546 27.8151 31.6622 31.2499 43.948 34.1407C68.5117 39.9204 102.471 43.5 140 43.5V44.5C102.418 44.5 68.3776 40.9162 43.719 35.1141C31.3936 32.214 21.3845 28.7535 14.4445 24.8928C7.54718 21.0558 3.5 16.7192 3.5 12H4.5Z" fill="#7E8082"/>
<path d="M300.354 11.6464C300.158 11.4512 299.842 11.4512 299.646 11.6464L296.464 14.8284C296.269 15.0237 296.269 15.3403 296.464 15.5355C296.66 15.7308 296.976 15.7308 297.172 15.5355L300 12.7071L302.828 15.5355C303.024 15.7308 303.34 15.7308 303.536 15.5355C303.731 15.3403 303.731 15.0237 303.536 14.8284L300.354 11.6464ZM299.5 12C299.5 16.1174 295.936 20.199 289.069 24.0189C282.245 27.8151 272.338 31.2499 260.052 34.1407C235.488 39.9204 201.529 43.5 164 43.5V44.5C201.582 44.5 235.622 40.9162 260.281 35.1141C272.606 32.214 282.616 28.7535 289.556 24.8928C296.453 21.0558 300.5 16.7192 300.5 12H299.5Z" fill="#7E8082"/>
<path d="M157 43L152 38L147 43" stroke="#7E8082" stroke-width="2" stroke-linecap="round" stroke-linejoin="round"/>
<path d="M157 36L152 31L147 36" stroke="#7E8082" stroke-width="2" stroke-linecap="round" stroke-linejoin="round"/>
</svg>
