<svg width="16" height="16" viewBox="0 0 16 16" fill="none" xmlns="http://www.w3.org/2000/svg">
<path d="M14.6664 4.82666C14.6669 4.73892 14.65 4.65194 14.6169 4.57072C14.5837 4.48949 14.5348 4.41562 14.473 4.35332L11.6464 1.52666C11.5841 1.46487 11.5102 1.41599 11.429 1.38281C11.3477 1.34963 11.2608 1.33282 11.173 1.33332C11.0853 1.33282 10.9983 1.34963 10.9171 1.38281C10.8359 1.41599 10.762 1.46487 10.6997 1.52666L8.81302 3.41332L1.52635 10.7C1.46456 10.7623 1.41568 10.8362 1.3825 10.9174C1.34933 10.9986 1.33251 11.0856 1.33302 11.1733V14C1.33302 14.1768 1.40326 14.3464 1.52828 14.4714C1.65331 14.5964 1.82287 14.6667 1.99969 14.6667H4.82635C4.91964 14.6717 5.01295 14.6571 5.10023 14.6238C5.18752 14.5905 5.26683 14.5393 5.33302 14.4733L12.5797 7.18666L14.473 5.33332C14.5339 5.26871 14.5834 5.19435 14.6197 5.11332C14.6261 5.06018 14.6261 5.00646 14.6197 4.95332C14.6228 4.92229 14.6228 4.89102 14.6197 4.85999L14.6664 4.82666ZM4.55302 13.3333H2.66635V11.4467L9.28635 4.82666L11.173 6.71332L4.55302 13.3333ZM12.113 5.77332L10.2264 3.88666L11.173 2.94666L13.053 4.82666L12.113 5.77332Z" fill="black"/>
</svg>
