<svg width="44" height="44" viewBox="0 0 44 44" fill="none" xmlns="http://www.w3.org/2000/svg">
<path d="M25.71 22.7101C26.6904 21.9388 27.406 20.881 27.7572 19.6841C28.1085 18.4871 28.0779 17.2104 27.6698 16.0316C27.2617 14.8528 26.4963 13.8305 25.4801 13.107C24.4639 12.3834 23.2474 11.9946 22 11.9946C20.7525 11.9946 19.5361 12.3834 18.5199 13.107C17.5037 13.8305 16.7383 14.8528 16.3302 16.0316C15.9221 17.2104 15.8915 18.4871 16.2428 19.6841C16.594 20.881 17.3096 21.9388 18.29 22.7101C16.6101 23.3832 15.1443 24.4995 14.0489 25.94C12.9535 27.3806 12.2696 29.0914 12.07 30.8901C12.0556 31.0214 12.0671 31.1543 12.104 31.2812C12.1409 31.408 12.2025 31.5264 12.2851 31.6294C12.452 31.8376 12.6948 31.971 12.96 32.0001C13.2252 32.0293 13.4912 31.9519 13.6993 31.785C13.9075 31.6181 14.0408 31.3753 14.07 31.1101C14.2896 29.1553 15.2217 27.3499 16.6882 26.0389C18.1547 24.7279 20.0529 24.0032 22.02 24.0032C23.9871 24.0032 25.8852 24.7279 27.3518 26.0389C28.8183 27.3499 29.7504 29.1553 29.97 31.1101C29.9972 31.3558 30.1144 31.5828 30.2991 31.7471C30.4838 31.9115 30.7228 32.0016 30.97 32.0001H31.08C31.3421 31.97 31.5817 31.8374 31.7466 31.6314C31.9114 31.4253 31.9881 31.1625 31.96 30.9001C31.7595 29.0963 31.0719 27.3811 29.9708 25.9383C28.8698 24.4955 27.3969 23.3796 25.71 22.7101V22.7101ZM22 22.0001C21.2089 22.0001 20.4355 21.7655 19.7777 21.326C19.1199 20.8865 18.6072 20.2618 18.3045 19.5309C18.0017 18.8 17.9225 17.9957 18.0769 17.2198C18.2312 16.4438 18.6122 15.7311 19.1716 15.1717C19.731 14.6123 20.4437 14.2313 21.2196 14.077C21.9956 13.9226 22.7998 14.0019 23.5307 14.3046C24.2616 14.6074 24.8863 15.12 25.3259 15.7778C25.7654 16.4356 26 17.209 26 18.0001C26 19.061 25.5786 20.0784 24.8284 20.8286C24.0783 21.5787 23.0609 22.0001 22 22.0001Z" fill="#7F7F7F"/>
</svg>
