<svg width="304" height="45" viewBox="0 0 304 45" fill="none" xmlns="http://www.w3.org/2000/svg">
<path d="M300.354 0.646447C300.158 0.451184 299.842 0.451184 299.646 0.646447L296.464 3.82843C296.269 4.02369 296.269 4.34027 296.464 4.53553C296.66 4.7308 296.976 4.7308 297.172 4.53553L300 1.70711L302.828 4.53553C303.024 4.7308 303.34 4.7308 303.536 4.53553C303.731 4.34027 303.731 4.02369 303.536 3.82843L300.354 0.646447ZM299.5 1C299.5 5.11737 295.936 9.199 289.069 13.0189C282.245 16.8151 272.338 20.2499 260.052 23.1407C235.488 28.9204 201.529 32.5 164 32.5V33.5C201.582 33.5 235.622 29.9162 260.281 24.1141C272.606 21.214 282.616 17.7535 289.556 13.8928C296.453 10.0558 300.5 5.71918 300.5 1H299.5Z" fill="#7E8082"/>
<path d="M3.64645 0.646447C3.84171 0.451184 4.15829 0.451184 4.35355 0.646447L7.53554 3.82843C7.73079 4.02369 7.73079 4.34027 7.53554 4.53553C7.34027 4.7308 7.0237 4.7308 6.82843 4.53553L4 1.70711L1.17157 4.53553C0.976303 4.7308 0.659729 4.7308 0.464462 4.53553C0.269211 4.34027 0.269211 4.02369 0.464462 3.82843L3.64645 0.646447ZM4.5 1C4.5 5.11737 8.06398 9.199 14.9306 13.0189C21.7546 16.8151 31.6622 20.2499 43.948 23.1407C68.5117 28.9204 102.471 32.5 140 32.5V33.5C102.418 33.5 68.3776 29.9162 43.719 24.1141C31.3936 21.214 21.3845 17.7535 14.4445 13.8928C7.54718 10.0558 3.5 5.71918 3.5 1H4.5Z" fill="#7E8082"/>
<path d="M147 34L152 39L157 34" stroke="#7E8082" stroke-width="2" stroke-linecap="round" stroke-linejoin="round"/>
<path d="M147 27L152 32L157 27" stroke="#7E8082" stroke-width="2" stroke-linecap="round" stroke-linejoin="round"/>
</svg>
