<svg width="26" height="23" viewBox="0 0 26 23" fill="none" xmlns="http://www.w3.org/2000/svg">
<path d="M5.48047 22.5986C6.93066 22.5986 9.89551 21.1377 12.0762 19.5908C19.5635 19.7949 25.1816 15.4873 25.1816 9.8584C25.1816 4.45508 19.7676 0.09375 13 0.09375C6.23242 0.09375 0.818359 4.45508 0.818359 9.8584C0.818359 13.3818 3.07422 16.5078 6.46875 18.0762C5.98535 19.0215 5.08301 20.2891 4.59961 20.9229C4.03027 21.6641 4.37402 22.5986 5.48047 22.5986ZM6.6084 20.8154C6.52246 20.8477 6.49023 20.7832 6.54395 20.7188C7.14551 19.9775 8.00488 18.8604 8.37012 18.1621C8.6709 17.6143 8.5957 17.1201 7.9082 16.7979C4.53516 15.2295 2.60156 12.7266 2.60156 9.8584C2.60156 5.46484 7.20996 1.87695 13 1.87695C18.8008 1.87695 23.4092 5.46484 23.4092 9.8584C23.4092 14.2627 18.8008 17.8506 13 17.8506C12.7852 17.8506 12.4521 17.8398 12.0225 17.8291C11.5713 17.8184 11.2275 17.9688 10.8193 18.291C9.49805 19.2471 7.58594 20.418 6.6084 20.8154Z" fill="#040609"/>
</svg>
