<svg width="24" height="24" viewBox="0 0 24 24" fill="none" xmlns="http://www.w3.org/2000/svg">
<path d="M10.9399 6.07994C11.2907 6.02617 11.6451 5.99943 11.9999 5.99994C15.1799 5.99994 18.1699 8.28994 19.9099 11.9999C19.6438 12.5645 19.3433 13.1122 19.0099 13.6399C18.9041 13.8038 18.8485 13.9949 18.8499 14.1899C18.8522 14.4082 18.9257 14.6197 19.0594 14.7922C19.1931 14.9647 19.3795 15.0888 19.5903 15.1455C19.8011 15.2021 20.0246 15.1883 20.2267 15.106C20.4289 15.0238 20.5986 14.8776 20.7099 14.6899C21.1759 13.9579 21.5806 13.1886 21.9199 12.3899C21.9736 12.2652 22.0013 12.1308 22.0013 11.9949C22.0013 11.8591 21.9736 11.7247 21.9199 11.5999C19.8999 6.90994 16.0999 3.99994 11.9999 3.99994C11.5306 3.99758 11.062 4.03774 10.5999 4.11994C10.4686 4.14227 10.343 4.19024 10.2302 4.26112C10.1174 4.332 10.0197 4.4244 9.94263 4.53304C9.86555 4.64169 9.81063 4.76445 9.78101 4.89432C9.75138 5.02419 9.74762 5.15862 9.76994 5.28994C9.79227 5.42126 9.84024 5.5469 9.91112 5.65968C9.982 5.77247 10.0744 5.87018 10.183 5.94726C10.2917 6.02433 10.4144 6.07925 10.5443 6.10888C10.6742 6.13851 10.8086 6.14227 10.9399 6.11994V6.07994ZM3.70994 2.28994C3.6167 2.1967 3.50601 2.12274 3.38419 2.07228C3.26237 2.02182 3.1318 1.99585 2.99994 1.99585C2.86808 1.99585 2.73751 2.02182 2.61569 2.07228C2.49387 2.12274 2.38318 2.1967 2.28994 2.28994C2.10164 2.47824 1.99585 2.73364 1.99585 2.99994C1.99585 3.26624 2.10164 3.52164 2.28994 3.70994L5.38994 6.79994C3.97551 8.16147 2.8498 9.79393 2.07994 11.5999C2.02488 11.7261 1.99646 11.8623 1.99646 11.9999C1.99646 12.1376 2.02488 12.2738 2.07994 12.3999C4.09994 17.0899 7.89994 19.9999 11.9999 19.9999C13.797 19.9875 15.5517 19.4524 17.0499 18.4599L20.2899 21.7099C20.3829 21.8037 20.4935 21.8781 20.6154 21.9288C20.7372 21.9796 20.8679 22.0057 20.9999 22.0057C21.132 22.0057 21.2627 21.9796 21.3845 21.9288C21.5064 21.8781 21.617 21.8037 21.7099 21.7099C21.8037 21.617 21.8781 21.5064 21.9288 21.3845C21.9796 21.2627 22.0057 21.132 22.0057 20.9999C22.0057 20.8679 21.9796 20.7372 21.9288 20.6154C21.8781 20.4935 21.8037 20.3829 21.7099 20.2899L3.70994 2.28994ZM10.0699 11.4799L12.5199 13.9299C12.3509 13.9784 12.1758 14.002 11.9999 13.9999C11.4695 13.9999 10.9608 13.7892 10.5857 13.4142C10.2107 13.0391 9.99994 12.5304 9.99994 11.9999C9.99789 11.8241 10.0215 11.649 10.0699 11.4799ZM11.9999 17.9999C8.81994 17.9999 5.82994 15.7099 4.09994 11.9999C4.74603 10.5737 5.66301 9.28652 6.79994 8.20994L8.56994 9.99994C8.15419 10.7587 7.99568 11.6319 8.1182 12.4884C8.24072 13.3449 8.63766 14.1386 9.24947 14.7504C9.86128 15.3622 10.655 15.7592 11.5115 15.8817C12.368 16.0042 13.2411 15.8457 13.9999 15.4299L15.5899 16.9999C14.501 17.6408 13.2634 17.9856 11.9999 17.9999Z" fill="black"/>
</svg>
