<svg width="16" height="16" viewBox="0 0 16 16" fill="none" xmlns="http://www.w3.org/2000/svg">
<rect width="16" height="16" fill="white"/>
<path d="M14.667 6.44664C14.6249 6.3247 14.5483 6.21759 14.4465 6.13831C14.3448 6.05903 14.2222 6.01097 14.0936 5.99997L10.3003 5.44664L8.60031 1.99997C8.54572 1.88726 8.46048 1.7922 8.35437 1.72569C8.24825 1.65918 8.12555 1.6239 8.00031 1.6239C7.87507 1.6239 7.75237 1.65918 7.64625 1.72569C7.54013 1.7922 7.4549 1.88726 7.40031 1.99997L5.70031 5.43997L1.90698 5.99997C1.78359 6.01751 1.66759 6.06928 1.57214 6.14941C1.47669 6.22954 1.40562 6.33482 1.36698 6.45331C1.33161 6.56909 1.32843 6.69232 1.3578 6.80977C1.38716 6.92722 1.44795 7.03446 1.53364 7.11998L4.28698 9.78664L3.62031 13.5733C3.59651 13.6983 3.60897 13.8275 3.65622 13.9456C3.70348 14.0637 3.78355 14.1659 3.88698 14.24C3.98779 14.312 4.10669 14.3546 4.23034 14.3628C4.35399 14.3711 4.47749 14.3447 4.58698 14.2866L8.00031 12.5066L11.4003 14.2933C11.4939 14.3461 11.5995 14.3737 11.707 14.3733C11.8482 14.3738 11.9859 14.3295 12.1003 14.2466C12.2037 14.1725 12.2838 14.0704 12.3311 13.9523C12.3783 13.8341 12.3908 13.705 12.367 13.58L11.7003 9.79331L14.4536 7.12664C14.5499 7.04509 14.621 6.93791 14.6588 6.81754C14.6966 6.69717 14.6994 6.56856 14.667 6.44664Z" fill="#E5E5E5"/>
</svg>
